<?xml version="1.0" encoding="UTF-8"?>
<svg version="1.1" xmlns="http://www.w3.org/2000/svg" width="50" height="50">
<path d="M0 0 C5.56340585 3.36669624 9.53349183 8.25193794 11.5 14.4375 C12.30594257 22.2813829 12.59671889 30.02934467 7.5 36.4375 C3.04867668 41.14197914 -1.19064516 44.09747071 -7.76953125 44.7734375 C-16.04371997 44.8646634 -22.08428015 44.61560264 -28.2421875 38.7890625 C-34.17397269 32.28964236 -34.96296445 26.57688134 -34.80859375 17.88671875 C-34.22339005 11.3457711 -31.85547257 7.43687235 -27.0625 3.0625 C-19.84507341 -2.93248543 -8.52200107 -3.84066973 0 0 Z M-20.0625 17.9375 C-21.2690625 19.175 -21.2690625 19.175 -22.5 20.4375 C-21.10667426 23.80470387 -19.5210714 25.4234524 -16.5 27.4375 C-16.5 25.7875 -16.5 24.1375 -16.5 22.4375 C-10.56 22.4375 -4.62 22.4375 1.5 22.4375 C1.5 21.7775 1.5 21.1175 1.5 20.4375 C-4.44 20.4375 -10.38 20.4375 -16.5 20.4375 C-16.5 18.7875 -16.5 17.1375 -16.5 15.4375 C-17.97736982 15.32111269 -17.97736982 15.32111269 -20.0625 17.9375 Z " fill="#000000" transform="translate(36.5,3.5625)"/>
</svg>
