<?xml version="1.0" encoding="UTF-8"?>
<svg version="1.1" xmlns="http://www.w3.org/2000/svg" width="512" height="512">
<path d="M0 0 C6.37675229 0.0056968 12.75346287 0.00230655 19.13021374 -0.00343227 C87.49879813 -0.05597335 87.49879813 -0.05597335 112.34570312 2.44287109 C112.99968079 2.5069516 113.65365845 2.5710321 114.32745361 2.63705444 C140.14784437 5.19164399 165.24103413 10.18100371 185.65820312 27.13037109 C186.25117188 27.57767578 186.84414063 28.02498047 187.45507812 28.48583984 C207.64686633 44.27804117 215.00391633 72.76252895 218.07226562 96.93896484 C222.29503207 133.26167887 221.82080171 169.79915655 221.78857422 206.30615234 C221.7828774 212.82086762 221.78626607 219.33554208 221.79200745 225.85025597 C221.84300637 293.63814017 221.84300637 293.63814017 219.40820312 318.50537109 C219.31449936 319.47941895 219.31449936 319.47941895 219.21890259 320.47314453 C216.24662778 350.83951166 209.33110625 380.46733355 185.84570312 401.66943359 C140.96330513 437.16067766 68.82682517 428.30886644 15.33691406 428.26074219 C8.94327954 428.25504539 2.54968664 428.25842981 -3.84394646 428.26418209 C-139.05493533 428.36757624 -139.05493533 428.36757624 -170.34179688 401.13037109 C-170.92832031 400.68564453 -171.51484375 400.24091797 -172.11914062 399.78271484 C-192.34110899 384.05451722 -199.69189025 355.46370058 -202.75585938 331.32177734 C-206.99714682 294.83975234 -206.5042141 258.13930063 -206.47216797 221.47241211 C-206.46646902 214.88910506 -206.4697643 208.30583879 -206.47574043 201.72253323 C-206.47940061 196.55466927 -206.47818284 191.38681455 -206.47561264 186.21895027 C-206.47495851 183.79513608 -206.4757169 181.37132097 -206.47809219 178.94750786 C-206.56350293 67.39942913 -206.56350293 67.39942913 -179.34179688 36.13037109 C-178.89707031 35.54384766 -178.45234375 34.95732422 -177.99414062 34.35302734 C-162.26557332 14.13058366 -133.67220511 6.77832457 -109.52929688 3.71630859 C-73.16083701 -0.51097047 -36.55348074 -0.03296118 0 0 Z M-5.71679688 99.00537109 C-8.95765071 105.23778232 -8.50750254 111.95019365 -8.54711914 118.81738281 C-8.55701874 119.88139816 -8.56691833 120.94541351 -8.57711792 122.04167175 C-8.60862734 125.5477783 -8.63344859 129.05389839 -8.65820312 132.56005859 C-8.67878176 134.99529364 -8.69977848 137.43052519 -8.72117615 139.86575317 C-8.77630279 146.2673458 -8.82575353 152.66897016 -8.87402344 159.07061768 C-8.9243072 165.60618913 -8.97995736 172.14171464 -9.03515625 178.67724609 C-9.14262274 191.4949149 -9.2442755 204.31262296 -9.34179688 217.13037109 C-9.76695587 216.70077087 -10.19211487 216.27117065 -10.63015747 215.82855225 C-15.06925781 211.34509274 -19.51547131 206.8687779 -23.96582031 202.39648438 C-25.62421966 200.72804786 -27.28081691 199.05781801 -28.93554688 197.38574219 C-31.31881023 194.97813059 -33.70854964 192.57711205 -36.09960938 190.17724609 C-36.83422394 189.43230896 -37.5688385 188.68737183 -38.32571411 187.91986084 C-44.04884296 182.19549741 -48.80116514 177.60841791 -57.16992188 177.03271484 C-61.92250693 177.24641022 -64.71528294 179.57346982 -68.15429688 182.63037109 C-71.09922023 185.99599778 -71.52767112 188.60427294 -71.65429688 192.94287109 C-71.69167969 193.77431641 -71.7290625 194.60576172 -71.76757812 195.46240234 C-70.76030843 201.77400968 -65.3678831 206.39740424 -61.01611328 210.73071289 C-60.39118484 211.36075226 -59.76625641 211.99079163 -59.12239075 212.6399231 C-57.06783177 214.70831282 -55.00599846 216.76925988 -52.94335938 218.82958984 C-51.50591436 220.27092455 -50.0686924 221.71248174 -48.63168335 223.1542511 C-45.62406293 226.16931911 -42.61261468 229.18050066 -39.59863281 232.18920898 C-35.74114364 236.04089681 -31.89515565 239.90384609 -28.05217934 243.77000713 C-25.08911491 246.74781545 -22.11913958 249.71865515 -19.14713669 252.68754005 C-17.72626006 254.10892927 -16.30773849 255.53267682 -14.89165115 256.95883751 C-12.91029424 258.95255763 -10.9195942 260.93646776 -8.92626953 262.91821289 C-8.34632736 263.5057988 -7.76638519 264.0933847 -7.16886902 264.69877625 C-2.19432377 269.6098089 2.2183591 272.3966181 9.43554688 272.62646484 C16.08785505 271.14167901 20.85572141 266.36519167 25.47973633 261.68115234 C26.12128159 261.04325775 26.76282684 260.40536316 27.42381287 259.74813843 C29.52631652 257.65369094 31.61783783 255.54865308 33.70898438 253.44287109 C35.17341347 251.97792296 36.63836196 250.51349386 38.10380554 249.04956055 C41.16550668 245.98776992 44.22199352 242.92089729 47.2746582 239.85009766 C51.1880562 235.91396335 55.11248455 231.98905167 59.04063129 228.06764221 C62.06328961 225.04832369 65.08094144 222.02404254 68.09700584 218.99813843 C69.54257057 217.54872538 70.98948519 216.10065734 72.43776894 214.65396118 C74.45804251 212.63405822 76.47169803 210.60778467 78.48364258 208.57958984 C79.08260345 207.98310638 79.68156433 207.38662292 80.29867554 206.77206421 C84.53598754 202.47996693 86.94187702 199.42891831 86.97070312 193.19287109 C86.82174233 187.21691468 85.13524242 184.67774559 81.03320312 180.38037109 C77.36297575 177.49531674 73.27206612 176.63822571 68.65820312 177.13037109 C56.57775159 182.52060151 47.24108426 194.42253569 38.03320312 203.69287109 C36.73005366 205.00104889 35.42666983 206.30899326 34.12304688 207.61669922 C30.96539521 210.78524323 27.81091562 213.95691287 24.65820312 217.13037109 C24.65323791 216.29879738 24.65323791 216.29879738 24.64817238 215.45042419 C24.5668133 201.93664855 24.47455589 188.42298473 24.37067604 174.90936279 C24.32076688 168.37416703 24.27443618 161.83898701 24.23632812 155.30371094 C24.19940764 148.99480061 24.15302897 142.68602374 24.10013962 136.37722778 C24.08163167 133.97236476 24.06651048 131.56747316 24.05485916 129.16256714 C24.03793533 125.78971746 24.00888487 122.41717101 23.97705078 119.04443359 C23.97489059 118.0539653 23.97273041 117.06349701 23.97050476 116.04301453 C23.88991507 109.34272912 23.53539854 103.14729229 19.90820312 97.31787109 C16.09967353 93.61513399 13.00392245 92.27989546 7.72070312 91.69287109 C1.77922526 91.9541598 -1.99768944 94.50329368 -5.71679688 99.00537109 Z M-90.77929688 311.81787109 C-93.28853542 317.13745681 -94.12700154 321.72856859 -92.27929688 327.38037109 C-89.60609566 331.17459218 -86.54436629 334.02908639 -82.34179688 336.13037109 C-79.9990219 336.23379279 -77.65321081 336.26993708 -75.3081665 336.27754211 C-74.57565162 336.2812188 -73.84313674 336.28489549 -73.08842444 336.28868359 C-70.62111712 336.29974234 -68.15385187 336.30356797 -65.68652344 336.30737305 C-63.92258571 336.31363606 -62.1586493 336.32028271 -60.39471436 336.32728577 C-55.59293477 336.3447109 -50.79116515 336.35525172 -45.98936176 336.3634913 C-42.9905435 336.3686384 -39.99172836 336.37471428 -36.99291229 336.38100243 C-27.61379 336.400059 -18.23467559 336.41428896 -8.85553765 336.4226144 C1.97745161 336.43238856 12.81023663 336.45871084 23.64315391 336.49911529 C32.01179802 336.5292592 40.38038354 336.54408164 48.7490809 336.54739541 C53.74937507 336.54974793 58.74945117 336.55873453 63.74968719 336.58385658 C68.45452595 336.60711205 73.15900267 336.61138072 77.86388397 336.6010952 C79.59003909 336.60059911 81.31621188 336.60694116 83.04231262 336.62065125 C85.40085558 336.63833532 87.7580944 336.63128219 90.11663818 336.61811829 C91.43589169 336.62050664 92.75514519 336.62289499 94.11437607 336.62535572 C99.27212578 335.90494618 102.26226528 333.45085284 105.97070312 329.94287109 C108.31472674 326.03616508 108.96847362 322.67091497 108.65820312 318.13037109 C107.33212628 313.45203787 105.39919767 310.72014226 101.59570312 307.69287109 C97.03647615 305.26775036 93.7882886 305.00022661 88.66963196 304.98320007 C87.59619601 304.97768504 87.59619601 304.97768504 86.50107449 304.97205859 C84.09681913 304.9610225 81.69260698 304.95717803 79.28833008 304.95336914 C77.56689822 304.94710439 75.84546772 304.94045758 74.1240387 304.93345642 C68.46486351 304.91241353 62.80568804 304.90205325 57.14648438 304.89208984 C55.1980049 304.88804226 53.24952556 304.88392533 51.30104637 304.87973976 C42.14617654 304.86068693 32.99131478 304.84645656 23.83642894 304.83812779 C13.27117974 304.82835714 2.70614015 304.80204248 -7.85903519 304.7616269 C-16.02645854 304.73145665 -24.19382183 304.71665802 -32.36129981 304.71334678 C-37.23868438 304.71099716 -42.11584504 304.70204823 -46.99316978 304.6768856 C-51.58394275 304.65358427 -56.17434472 304.64937994 -60.76516151 304.65964699 C-62.44693868 304.66014197 -64.12873423 304.65383255 -65.81045532 304.64009094 C-79.62031058 304.33906833 -79.62031058 304.33906833 -90.77929688 311.81787109 Z " fill="#000000" transform="translate(248.341796875,41.86962890625)"/>
</svg>
