<svg width="32" height="24" viewBox="0 0 32 24" fill="none" xmlns="http://www.w3.org/2000/svg">
<path d="M27.2966 0H4.40066C1.97037 0 0 1.97037 0 4.40066V18.8863C0 21.3166 1.97037 23.287 4.40066 23.287H27.2966C29.7268 23.287 31.6972 21.3166 31.6972 18.8863V4.40066C31.6972 1.97037 29.7268 0 27.2966 0ZM11.03 15.7121L4.86763 20.9694C4.43297 21.3404 3.77953 21.2888 3.40863 20.8537C3.03767 20.419 3.08924 19.7656 3.5244 19.3947L9.68679 14.1374C10.1214 13.7665 10.7748 13.818 11.1457 14.2532C11.5167 14.6878 11.4651 15.3412 11.03 15.7121ZM15.8486 13.7135C15.0244 13.7114 14.2254 13.4375 13.6007 12.8973L13.6012 12.8978L13.5992 12.8963C13.5997 12.8968 13.6003 12.8968 13.6007 12.8973L4.14553 4.69076C3.71341 4.31572 3.66741 3.66233 4.04189 3.23077C4.41688 2.79864 5.07032 2.75265 5.50183 3.12713L14.9597 11.3357C15.1618 11.5156 15.4949 11.6455 15.8486 11.6435C16.2019 11.6445 16.5293 11.5182 16.7426 11.3322L16.7472 11.3282L26.1954 3.12719C26.6269 2.75271 27.2804 2.79871 27.6554 3.23083C28.0298 3.66233 27.9838 4.31578 27.5517 4.69082L18.0939 12.8999C17.4713 13.4344 16.6734 13.7124 15.8486 13.7135ZM28.2891 20.8537C27.9181 21.2888 27.2646 21.3404 26.8301 20.9694L20.6677 15.7121C20.2326 15.3412 20.1811 14.6878 20.552 14.2532C20.9229 13.818 21.5764 13.7665 22.011 14.1374L28.1733 19.3947C28.6084 19.7656 28.66 20.419 28.2891 20.8537Z" fill="#7C7C7C"/>
</svg>
